<?xml version="1.0" standalone="no"?>
<!DOCTYPE svg PUBLIC "-//W3C//DTD SVG 1.1//EN" "http://www.w3.org/Graphics/SVG/1.1/DTD/svg11.dtd" >
<svg xmlns="http://www.w3.org/2000/svg">
<metadata></metadata>
<defs>
<font id="mullerblack" horiz-adv-x="1218" >
<font-face units-per-em="2048" ascent="1597" descent="-451" />
<missing-glyph horiz-adv-x="372" />
<glyph horiz-adv-x="0" />
<glyph unicode="&#xd;" horiz-adv-x="681" />
<glyph unicode=" "  horiz-adv-x="372" />
<glyph unicode="&#x09;" horiz-adv-x="372" />
<glyph unicode="&#xa0;" horiz-adv-x="372" />
<glyph unicode="!" horiz-adv-x="632" d="M78 198.5q0 112.5 68.5 172t171 59.5t171 -59.5t68.5 -172t-68.5 -172t-171 -59.5t-171 59.5t-68.5 172zM86 1434h461l-49 -871h-363z" />
<glyph unicode="&#x22;" horiz-adv-x="995" d="M84 887v547h375l-70 -547h-305zM571 887v547h375l-69 -547h-306z" />
<glyph unicode="#" horiz-adv-x="1495" d="M57 258v291h195l70 297h-162v291h231l62 258h376l-59 -258h166l59 258h379l-61 -258h125v-291h-193l-71 -297h161v-291h-229l-62 -258h-378l61 258h-166l-61 -258h-377l59 258h-125zM629 549h166l69 297h-164z" />
<glyph unicode="$" horiz-adv-x="1302" d="M76 981q0 182 111.5 292.5t297.5 139.5v223h324v-223q213 -31 356 -106v-410q-221 141 -475 137q-127 0 -127 -63q0 -39 71 -64.5t171 -51.5t201.5 -65.5t172 -131t70.5 -226.5q0 -401 -440 -455v-221h-324v219q-229 29 -405 127v428q256 -168 520 -168q92 0 128 16.5 t36 53.5q0 39 -70.5 65.5t-172 52t-203 67.5t-172 134.5t-70.5 229.5z" />
<glyph unicode="%" horiz-adv-x="1968" d="M47 1077.5q0 188.5 118 288.5t298 100q178 0 296 -100t118 -288.5t-118 -289t-296 -100.5q-180 0 -298 100.5t-118 289zM360 1077.5q0 -106.5 100.5 -106.5t100.5 106.5t-100.5 106.5t-100.5 -106.5zM438 -123l838 1679h260l-838 -1679h-260zM1092 356.5 q0 188.5 117.5 290t295.5 101.5t297 -101.5t119 -290t-117.5 -289t-298.5 -100.5q-178 0 -295.5 100.5t-117.5 289zM1405 356q0 -106 100.5 -106t100.5 106q0 109 -100.5 109t-100.5 -109z" />
<glyph unicode="&#x26;" horiz-adv-x="1533" d="M57 350q0 240 281 391q-156 168 -156 322q0 178 142.5 290.5t373.5 112.5q215 0 347.5 -109.5t132.5 -273.5q0 -217 -314 -391l170 -170q59 102 60 215h376q0 -248 -190 -463l274 -274h-448l-80 76q-207 -109 -461 -109q-233 0 -370.5 106.5t-137.5 276.5zM469 395 q0 -115 162 -114q78 0 153 30l-225 217q-90 -59 -90 -133zM565 1061q0 -59 90 -160q144 86 144 174q0 45 -28 72t-79 27q-57 0 -92 -33t-35 -80z" />
<glyph unicode="'" horiz-adv-x="507" d="M84 887v547h375l-70 -547h-305z" />
<glyph unicode="(" horiz-adv-x="714" d="M53 717q0 246 87.5 496.5t234.5 449.5h313q-213 -479 -213 -946t213 -946h-313q-147 199 -234.5 449.5t-87.5 496.5z" />
<glyph unicode=")" horiz-adv-x="714" d="M27 -229q213 471 213 946t-213 946h315q145 -201 232.5 -450.5t87.5 -495.5t-87.5 -496t-232.5 -450h-315z" />
<glyph unicode="*" horiz-adv-x="1091" d="M51 956l137 357l207 -125l-41 246h383l-39 -246l205 125l137 -357l-235 -47l168 -153l-309 -211l-117 246l-119 -246l-309 211l170 153z" />
<glyph unicode="+" horiz-adv-x="1130" d="M57 547v344h336v334h344v-334h336v-344h-336v-336h-344v336h-336z" />
<glyph unicode="," horiz-adv-x="585" d="M-25 -293l146 629h414l-236 -629h-324z" />
<glyph unicode="-" horiz-adv-x="983" d="M92 326v333h799v-333h-799z" />
<glyph unicode="." horiz-adv-x="581" d="M51 198.5q0 112.5 68.5 172t171 59.5t171 -59.5t68.5 -172t-68.5 -172t-171 -59.5t-171 59.5t-68.5 172z" />
<glyph unicode="/" horiz-adv-x="1021" d="M39 -125l647 1684h301l-647 -1684h-301z" />
<glyph unicode="0" horiz-adv-x="1447" d="M66 696.5q0 151.5 37.5 279.5t114.5 230.5t207 160.5t300 58t299 -58t206 -160.5t114.5 -230.5t37.5 -279.5t-37.5 -279.5t-114.5 -230.5t-206 -161t-299 -58.5t-300 58.5t-207 161t-114.5 230.5t-37.5 279.5zM537 696q0 -170 45 -245.5t143 -75.5q96 0 141 76.5 t45 244.5t-45 245t-141 77q-98 0 -143 -76t-45 -246z" />
<glyph unicode="1" horiz-adv-x="1034" d="M86 0v387h238v559l-226 -84v402l338 129h344v-1006h215v-387h-909z" />
<glyph unicode="2" horiz-adv-x="1271" d="M70 2v191q0 102 27.5 182t97 149.5t106.5 97t137 93.5q4 4 6 5t6.5 4l7.5 5t7 4q33 23 87 54.5t79.5 48t47 43t21.5 57.5q0 88 -133 88q-219 0 -454 -176v428q236 150 522 149q238 0 394.5 -110.5t156.5 -339.5q0 -137 -68.5 -229.5t-191.5 -174.5q-20 -12 -74.5 -49 t-76 -51t-52.5 -38.5t-45 -45.5h510v-385h-1118z" />
<glyph unicode="3" horiz-adv-x="1241" d="M82 55v406q199 -106 455 -107q195 4 194 101q0 78 -123 77h-248l2 351h203q113 -4 113 67q0 84 -166 84q-90 0 -204.5 -34.5t-201.5 -90.5v396q203 121 482 120q231 0 382.5 -99t151.5 -300q0 -104 -56 -183t-163 -116q121 -31 199 -118t78 -224q0 -113 -49.5 -196 t-135.5 -130t-187 -69.5t-220 -22.5q-274 0 -506 88z" />
<glyph unicode="4" horiz-adv-x="1386" d="M37 186v377l655 830h463v-840h174v-367h-174v-186h-426v186h-692zM469 553h260v326z" />
<glyph unicode="5" horiz-adv-x="1239" d="M76 61v385q68 -45 175 -72.5t210 -27.5q109 0 176.5 32t67.5 95q0 129 -275 125q-172 0 -307 -41l49 836h946v-385l-534 2l-11 -142q68 10 123 11q209 0 344.5 -104.5t135.5 -330.5q0 -129 -54.5 -225t-148.5 -149.5t-202.5 -78t-233.5 -24.5q-260 0 -461 94z" />
<glyph unicode="6" horiz-adv-x="1376" d="M66 702q0 186 57 329t157.5 226.5t224.5 125.5t267 42q246 0 430 -92v-366q-162 96 -334 96q-141 0 -227 -52.5t-115 -183.5q145 82 320 82q201 0 338 -115.5t137 -330.5q0 -246 -164 -371t-409 -125q-682 0 -682 735zM524 528q35 -215 199 -215q66 0 108.5 35t42.5 96 q0 135 -172 136q-86 -1 -178 -52z" />
<glyph unicode="7" horiz-adv-x="1210" d="M45 1008v385h1137v-299l-520 -1094h-510l479 1008h-586z" />
<glyph unicode="8" horiz-adv-x="1368" d="M61 381q0 109 59.5 198t143.5 134q-151 119 -151 297q0 168 144 291.5t429 123.5q274 0 422.5 -120.5t146.5 -278.5q-2 -100 -45 -165.5t-127 -121.5q223 -119 224 -346q0 -182 -157 -304t-470 -122q-317 0 -468 119t-151 295zM522 442q2 -55 46 -94t132 -39 q68 0 106 26.5t38 67.5q0 33 -20.5 56.5t-46 36t-70.5 28.5q-137 43 -142 45q-43 -55 -43 -127zM547 999q0 -45 37 -69.5t110 -46.5q37 -12 90 -29q41 70 37 127q-4 102 -147 102q-59 0 -93 -24.5t-34 -59.5z" />
<glyph unicode="9" horiz-adv-x="1376" d="M55 930q0 166 82 280.5t208 164.5t284 50q682 0 682 -735q0 -186 -57.5 -328.5t-157 -226.5t-224 -126t-268.5 -42q-248 0 -428 92v367q160 -96 332 -96q141 0 227 52t115 183q-145 -82 -320 -82q-201 0 -338 116t-137 331zM504 948q0 -135 170 -135q86 0 178 51 q-18 119 -68.5 167t-130.5 48q-63 0 -106 -34.5t-43 -96.5z" />
<glyph unicode=":" horiz-adv-x="604" d="M72 190.5q0 108.5 66.5 166t162.5 57.5q100 0 165.5 -57.5t65.5 -166t-65.5 -166t-165.5 -57.5q-98 0 -163.5 57.5t-65.5 166zM72 759.5q0 108.5 65.5 166t163.5 57.5q100 0 165.5 -57.5t65.5 -166t-65.5 -165.5t-165.5 -57q-96 0 -162.5 57t-66.5 165.5z" />
<glyph unicode=";" horiz-adv-x="626" d="M-10 -293l145 629h414l-236 -629h-323zM84 772q0 113 68.5 172.5t171 59.5t171 -59.5t68.5 -172.5t-68.5 -172t-171 -59t-171 59t-68.5 172z" />
<glyph unicode="&#x3c;" horiz-adv-x="1048" d="M66 502v430l870 276v-374l-520 -117l520 -117v-375z" />
<glyph unicode="=" horiz-adv-x="1284" d="M127 319v332h1030v-332h-1030zM127 782v332h1030v-332h-1030z" />
<glyph unicode="&#x3e;" horiz-adv-x="1048" d="M113 225v375l522 117l-522 117v374l870 -276v-430z" />
<glyph unicode="?" horiz-adv-x="1040" d="M70 975v401q186 90 409 90q82 0 152.5 -10t138.5 -36.5t116 -67.5t76.5 -106.5t28.5 -151.5q0 -94 -52 -184.5t-114.5 -149t-115 -123t-52.5 -111.5h-401q0 84 41 161t91 122t91 92t41 80q0 84 -133 84q-160 0 -317 -90zM219 198.5q0 112.5 68.5 172t171 59.5t171 -59.5 t68.5 -172t-68.5 -172t-171 -59.5t-171 59.5t-68.5 172z" />
<glyph unicode="@" horiz-adv-x="2138" d="M55 492q0 190 66.5 364t191.5 311.5t324 218t444 80.5q199 0 367 -54t280.5 -144t190.5 -207t113.5 -240t35.5 -246q0 -270 -135 -415.5t-348 -145.5q-268 0 -368 185q-88 -131 -267 -131q-96 0 -172 38.5t-119 102t-64.5 135.5t-21.5 145q0 164 91.5 291t271.5 127 q160 0 254 -116v92h313v-471q0 -117 94 -117q39 0 62.5 23.5t35 68.5t14.5 86t3 102q0 100 -38 196.5t-110.5 180.5t-198.5 135.5t-284 51.5q-303 0 -481 -190.5t-178 -456.5q0 -170 61.5 -298t170 -202t241.5 -109t291 -35q205 0 436 72v-328q-207 -74 -448 -73 q-227 0 -427 61.5t-355.5 179t-246 306t-90.5 426.5zM934 487q0 -59 31.5 -105t99.5 -46q72 0 113 65v174q-39 66 -113 66q-70 0 -100.5 -46t-30.5 -108z" />
<glyph unicode="A" horiz-adv-x="1566" d="M-6 0l536 1434h508l535 -1434h-479l-62 190h-495l-64 -190h-479zM645 532h281l-101 306q-29 90 -41 184q-12 -82 -39 -184z" />
<glyph unicode="B" horiz-adv-x="1433" d="M109 0v1434h716q508 0 508 -363q0 -229 -205 -309q262 -80 263 -352q0 -410 -584 -410h-698zM582 348h200q138 0 138 117t-138 117h-200v-234zM582 874l178 -2q57 0 88 31t31 76q0 47 -31 76.5t-88 29.5h-178v-211z" />
<glyph unicode="C" horiz-adv-x="1331" d="M51 702q0 197 65.5 348.5t179.5 239.5t250 132t290 44q231 0 421 -86v-422q-141 98 -337 99q-164 0 -273.5 -87t-109.5 -268q0 -158 108.5 -238.5t263.5 -80.5q244 0 359 102v-432q-190 -86 -420 -86q-158 0 -297 43t-253 128t-180.5 230.5t-66.5 333.5z" />
<glyph unicode="D" horiz-adv-x="1523" d="M109 0v1434h618q371 0 557 -193.5t186 -523.5t-186 -523.5t-557 -193.5h-618zM582 397h133q270 0 270 319.5t-270 319.5h-133v-639z" />
<glyph unicode="E" horiz-adv-x="1273" d="M109 0v1434h1085v-373h-612v-166h538v-348h-538v-170h624v-377h-1097z" />
<glyph unicode="F" horiz-adv-x="1232" d="M109 0v1434h1062v-414h-589v-176h530v-402h-530v-442h-473z" />
<glyph unicode="G" horiz-adv-x="1421" d="M49 717q0 190 66.5 337.5t180.5 235.5t252 132t294 44q252 0 463 -86v-422q-154 96 -377 97q-172 0 -282.5 -83t-110.5 -255q0 -96 31.5 -165t82.5 -101.5t98.5 -47t92.5 -14.5q25 0 57 4v408h442v-738q-244 -96 -487 -96q-160 0 -301 46t-255 136.5t-180.5 237 t-66.5 330.5z" />
<glyph unicode="H" horiz-adv-x="1550" d="M109 0v1434h473v-510h389v510h471v-1434h-471v510h-389v-510h-473z" />
<glyph unicode="I" horiz-adv-x="690" d="M109 0v1434h473v-1434h-473z" />
<glyph unicode="J" horiz-adv-x="1062" d="M31 37v418q117 -51 248 -52q215 0 215 154v463h-330v414h803v-936q0 -145 -48.5 -251t-131 -163t-178 -83t-206.5 -26q-223 0 -372 62z" />
<glyph unicode="K" horiz-adv-x="1490" d="M109 0v1434h473v-508h118l287 508h520l-436 -711l445 -723h-521l-305 512h-108v-512h-473z" />
<glyph unicode="L" d="M109 0v1434h473v-1020h612v-414h-1085z" />
<glyph unicode="M" horiz-adv-x="1857" d="M109 0v1434h419l400 -627l401 627h420v-1434h-461v655l-235 -364h-248l-236 366v-657h-460z" />
<glyph unicode="N" horiz-adv-x="1562" d="M109 0v1434h399l485 -674q-12 102 -12 246v428h473v-1434h-399l-486 672q12 -102 13 -242v-430h-473z" />
<glyph unicode="O" horiz-adv-x="1650" d="M49 716.5q0 325.5 203 537.5t573.5 212t573.5 -212t203 -537.5t-203 -537.5t-573.5 -212t-573.5 212t-203 537.5zM535 716.5q0 -149.5 76.5 -235.5t214 -86t214 86t76.5 235.5t-76.5 235.5t-214 86t-214 -86t-76.5 -235.5z" />
<glyph unicode="P" horiz-adv-x="1411" d="M109 0v1434h626q643 0 643 -531q0 -528 -643 -528h-153v-375h-473zM582 764h149q178 0 178 139q0 141 -178 141h-149v-280z" />
<glyph unicode="Q" horiz-adv-x="1650" d="M49 716.5q0 325.5 203 537.5t573.5 212t573.5 -212t203 -537q0 -262 -129 -449l129 -129l-273 -241l-139 139q-158 -70 -365 -70q-371 0 -573.5 212t-202.5 537.5zM522 716.5q0 -155.5 82 -243.5t219 -88q29 0 41 2l-121 121l236 233l133 -133q14 45 14 109 q0 156 -81.5 245t-221.5 89q-137 0 -219 -89.5t-82 -245z" />
<glyph unicode="R" horiz-adv-x="1492" d="M109 0v1434h665q123 0 225.5 -25t192.5 -80t141 -157.5t51 -243.5q0 -305 -245 -428l368 -500h-520l-295 424h-110v-424h-473zM582 778h182q68 0 106.5 37t38.5 98.5t-39 98.5t-106 37h-182v-271z" />
<glyph unicode="S" horiz-adv-x="1300" d="M70 1022q0 217 158.5 330.5t404.5 113.5q305 0 526 -118v-410q-215 137 -461 137h-14q-127 0 -127 -63q0 -29 39 -52.5t99.5 -42t135 -40t149.5 -56.5t135.5 -82t99 -127t38.5 -180q0 -465 -602 -465q-328 0 -569 135v428q256 -168 522 -168q90 0 126 16.5t36 53.5 q0 33 -51 60.5t-129 47t-168 56.5t-168 84t-129 136t-51 206z" />
<glyph unicode="T" horiz-adv-x="1290" d="M25 1020v414h1241v-414h-385v-1020h-471v1020h-385z" />
<glyph unicode="U" horiz-adv-x="1515" d="M92 557v877h473v-854q0 -188 193 -189q195 0 194 189v854h471v-877q0 -160 -55 -277.5t-151.5 -184t-210 -97.5t-248.5 -31t-249 31t-210 97.5t-151.5 184t-55.5 277.5z" />
<glyph unicode="V" horiz-adv-x="1525" d="M-4 1434h502l266 -879l264 879h502l-524 -1434h-484z" />
<glyph unicode="W" horiz-adv-x="2277" d="M8 1434h508l205 -865l223 865h389l221 -865l205 865h510l-432 -1434h-508l-190 723l-189 -723h-510z" />
<glyph unicode="X" horiz-adv-x="1497" d="M-39 0l492 739l-467 695h551l213 -371l211 371h550l-467 -695l492 -739h-551l-235 403l-238 -403h-551z" />
<glyph unicode="Y" horiz-adv-x="1542" d="M-8 1434h534l246 -543l246 543h534l-546 -945v-489h-469v489z" />
<glyph unicode="Z" horiz-adv-x="1323" d="M55 0v301l533 719h-500v414h1149v-301l-532 -719h557v-414h-1207z" />
<glyph unicode="[" horiz-adv-x="788" d="M102 -225v1884h631v-371h-203v-1141h203v-372h-631z" />
<glyph unicode="\" horiz-adv-x="1019" d="M35 1559h301l647 -1684h-301z" />
<glyph unicode="]" horiz-adv-x="788" d="M55 147h203v1141h-203v371h631v-1884h-631v372z" />
<glyph unicode="^" horiz-adv-x="1355" d="M47 659l440 775h381l441 -775h-441l-190 367l-191 -367h-440z" />
<glyph unicode="_" horiz-adv-x="1067" d="M0 -70h1067v-346h-1067v346z" />
<glyph unicode="`" horiz-adv-x="729" d="M49 1876h422l203 -336h-375z" />
<glyph unicode="a" horiz-adv-x="1177" d="M37 264q0 90 38 154.5t103.5 99.5t137 50.5t153.5 15.5q109 0 195 -19v23q0 108 -191 108h-4q-164 0 -354 -69v323q219 66 403 66q274 0 414.5 -103.5t140.5 -373.5v-228q0 -53 57 -53q14 0 39 4v-252q-88 -37 -217 -37q-172 0 -245 105q-135 -111 -328 -111 q-145 0 -243.5 78t-98.5 219zM455 299q0 -35 27.5 -56.5t68.5 -21.5q61 0 113 33v121q-33 12 -86 12q-51 0 -87 -21.5t-36 -66.5z" />
<glyph unicode="b" horiz-adv-x="1280" d="M84 0v1434h432v-510q98 92 268 92q221 0 336 -151.5t115 -373t-114.5 -373t-336.5 -151.5q-201 0 -321 152v-119h-379zM514 383q41 -70 127 -70q74 0 112 52.5t38 126t-38 126t-112 52.5q-43 0 -78 -20.5t-49 -49.5v-217z" />
<glyph unicode="c" horiz-adv-x="1001" d="M43 465q0 143 49 252.5t133 174t185.5 96.5t216.5 32q152 0 303 -59v-355q-111 55 -225 56q-94 0 -156 -41t-62 -129q0 -86 59.5 -126t149.5 -40q139 0 244 49v-352q-162 -55 -342 -56q-233 0 -394 125t-161 373z" />
<glyph unicode="d" horiz-adv-x="1280" d="M45 491.5q0 221.5 114.5 373t338.5 151.5q166 0 268 -92v510h430v-1434h-379v119q-117 -152 -319 -152q-223 0 -338 151.5t-115 373zM492 491.5q0 -73.5 37.5 -126t111.5 -52.5q86 0 127 70v217q-41 70 -127 70q-74 0 -111.5 -52.5t-37.5 -126z" />
<glyph unicode="e" horiz-adv-x="1120" d="M43 498q0 137 51 242.5t132 163t169 85t176 27.5q127 0 226.5 -38t156 -99.5t90.5 -142.5q34 -79 34 -164q0 -87 -15 -179h-606q25 -59 102.5 -91t177.5 -32q160 0 283 39v-291q-150 -51 -358 -51q-166 0 -301.5 51.5t-226.5 175.5t-91 304zM453 592h260q2 11 2 22 q-1 39 -23 73q-28 44 -98 44q-63 0 -102 -39t-39 -100z" />
<glyph unicode="f" horiz-adv-x="860" d="M49 639v344h139v82q0 111 38 192.5t102.5 125.5t136.5 63.5t149 19.5q143 0 250 -39v-329q-53 32 -119 32h-4q-121 0 -120 -100v-47h215v-344h-215v-639h-433v639h-139z" />
<glyph unicode="g" horiz-adv-x="1280" d="M45 504q0 219 114.5 365.5t338.5 146.5q203 0 319 -152v119h379v-920q0 -283 -171 -414.5t-429 -131.5q-246 0 -446 84v356q164 -90 368 -90q248 0 248 168v49q-100 -94 -268 -94q-223 0 -338 147.5t-115 366.5zM492 497.5q0 -73.5 37.5 -126t111.5 -52.5q86 0 127 70 v217q-41 70 -127 70q-74 0 -111.5 -52.5t-37.5 -126z" />
<glyph unicode="h" d="M84 0v1434h432v-504q111 86 248 86q190 0 285.5 -111.5t95.5 -269.5v-635h-432v561q0 94 -95 94q-61 0 -102 -49v-606h-432z" />
<glyph unicode="i" horiz-adv-x="600" d="M74 1300q0 104 64.5 160t160.5 56t160.5 -56t64.5 -160q0 -106 -64.5 -161.5t-160.5 -55.5t-160.5 55.5t-64.5 161.5zM84 0v983h432v-983h-432z" />
<glyph unicode="j" horiz-adv-x="600" d="M-104 -102q41 -10 84 -11q104 0 104 109v987h432v-1087q0 -195 -116.5 -287t-299.5 -92q-123 0 -204 30v351zM76 1300q0 104 64.5 160t160.5 56t160.5 -56t64.5 -160q0 -106 -64.5 -161.5t-160.5 -55.5t-160.5 55.5t-64.5 161.5z" />
<glyph unicode="k" horiz-adv-x="1220" d="M84 0v1434h432v-766h64l174 315h469l-303 -485l313 -498h-469l-186 332h-62v-332h-432z" />
<glyph unicode="l" horiz-adv-x="600" d="M84 0v1495h432v-1495h-432z" />
<glyph unicode="m" horiz-adv-x="1771" d="M84 0v983h379v-92q47 51 130 88t171 37q193 0 280 -131q131 131 308 131q182 0 264 -111.5t82 -286.5v-618h-426v584q0 71 -72 71h-2q-47 0 -90 -37v-28v-590h-426v584q0 35 -20.5 53t-51.5 18q-57 0 -100 -47v-608h-426z" />
<glyph unicode="n" d="M84 0v983h379v-98q131 131 301 131q190 0 285.5 -111.5t95.5 -269.5v-635h-432v561q0 94 -95 94q-61 0 -102 -49v-606h-432z" />
<glyph unicode="o" d="M43 491.5q0 253.5 161 389t404 135.5q246 0 407 -135.5t161 -389t-161 -389t-407 -135.5q-244 0 -404.5 135.5t-160.5 389zM465 491.5q0 -167.5 143 -167.5q146 0 146 167.5t-146 167.5q-143 0 -143 -167.5z" />
<glyph unicode="p" horiz-adv-x="1280" d="M84 -451v1434h379v-119q121 152 321 152q221 0 336 -151.5t115 -373t-114.5 -373t-336.5 -151.5q-166 0 -268 92v-510h-432zM514 383q14 -29 49 -49.5t78 -20.5q74 0 112 52.5t38 126t-38 126t-112 52.5q-86 0 -127 -70v-217z" />
<glyph unicode="q" horiz-adv-x="1280" d="M45 491.5q0 221.5 114.5 373t338.5 151.5q203 0 319 -152v119h379v-1434h-430v510q-102 -92 -268 -92q-223 0 -338 151.5t-115 373zM492 491.5q0 -73.5 37.5 -126t111.5 -52.5q86 0 127 70v217q-41 70 -127 70q-74 0 -111.5 -52.5t-37.5 -126z" />
<glyph unicode="r" horiz-adv-x="858" d="M84 0v983h379v-115q106 140 301 140q31 0 65 -4v-406q-53 18 -111 18q-31 0 -64 -6q-93 -14 -138 -63v-547h-432z" />
<glyph unicode="s" horiz-adv-x="1005" d="M57 700q0 168 126 242t319 74q209 0 387 -84v-303q-147 90 -311 90q-72 0 -72 -35q0 -20 25.5 -36.5t66.5 -28t90 -25.5t97.5 -36.5t89 -55.5t66.5 -87.5t26 -123.5q0 -324 -486 -324q-254 0 -411 86v330q150 -109 354 -109q96 0 96 37q0 27 -48 45.5t-115.5 39t-135 51 t-116 96t-48.5 157.5z" />
<glyph unicode="t" horiz-adv-x="890" d="M35 639v344h137v264l432 101v-365h219v-344h-219v-227q0 -92 117 -93q70 0 117 17v-332q-145 -39 -277 -39q-168 0 -278.5 85t-110.5 292v297h-137z" />
<glyph unicode="u" d="M74 348v635h432v-561q0 -94 94 -94q61 0 102 49v606h433v-983h-379v98q-131 -131 -303 -131q-188 0 -283.5 111.5t-95.5 269.5z" />
<glyph unicode="v" horiz-adv-x="1226" d="M4 983h455l155 -571l156 571h453l-381 -983h-457z" />
<glyph unicode="w" horiz-adv-x="1728" d="M14 983h441l112 -547l133 547h328l133 -547l113 547h440l-303 -983h-420l-127 485l-127 -485h-420z" />
<glyph unicode="x" horiz-adv-x="1169" d="M-16 0l340 489l-326 494h453l135 -235l133 235h455l-328 -494l340 -489h-463l-137 225l-137 -225h-465z" />
<glyph unicode="y" horiz-adv-x="1236" d="M-8 983h446l203 -539l150 539h438l-375 -1042q-152 -422 -524 -422q-96 0 -215 35v348q78 -20 145 -21q125 0 182 113z" />
<glyph unicode="z" horiz-adv-x="1034" d="M55 0v254l338 385h-307v344h862v-254l-336 -385h365v-344h-922z" />
<glyph unicode="{" horiz-adv-x="841" d="M37 537v362q35 0 57.5 3t46 14.5t35.5 35t12 62.5v291q0 221 162 319t434 35v-340q-92 18 -130 -24t-38 -140v-201q0 -106 -59 -169.5t-149 -67.5q90 -4 149 -67.5t59 -170.5v-200q0 -98 38 -140t130 -24v-340q-272 -63 -434 35t-162 319v291q0 72 -39.5 94.5 t-111.5 22.5z" />
<glyph unicode="|" horiz-adv-x="632" d="M102 -205v1864h428v-1864h-428z" />
<glyph unicode="}" horiz-adv-x="841" d="M57 115q92 -18 130 23.5t38 140.5v200q0 106 59.5 170t149.5 68q-90 4 -149.5 67.5t-59.5 169.5v201q0 98 -37.5 140t-130.5 24v340q272 63 434 -35t162 -319v-291q0 -72 40 -93.5t112 -21.5v-362q-72 0 -112 -22.5t-40 -94.5v-291q0 -221 -161.5 -319.5t-434.5 -34.5 v340z" />
<glyph unicode="~" horiz-adv-x="1239" d="M92 479q-29 211 54 316.5t233 105.5q90 0 230.5 -49t166.5 -49q55 0 43 82h340q29 -209 -53 -314.5t-238 -105.5q-84 0 -226 49t-167 49q-55 0 -43 -84h-340z" />
<glyph unicode="&#xa1;" horiz-adv-x="614" d="M68 784.5q0 112.5 68.5 172t170.5 59.5q104 0 172 -58.5t68 -173.5q0 -113 -68.5 -172t-171 -59t-171 59.5t-68.5 172zM76 -451l49 871h362l50 -871h-461z" />
<glyph unicode="&#xa2;" horiz-adv-x="1044" d="M51 465q0 272 165 411.5t402 143.5v209h191v-230q74 -16 129 -38v-355q-59 31 -129 45v-317q78 12 139 41v-352q-72 -23 -139 -37v-232h-191v213h-12q-233 0 -394 125t-161 373zM496 492q0 -121 122 -156v313q-123 -35 -122 -157z" />
<glyph unicode="&#xa3;" horiz-adv-x="1247" d="M68 0v369h43q59 0 92 36.5t33 98.5v45h-138v307h140v66q0 252 149.5 377.5t386.5 125.5q190 0 359 -71v-357q-111 76 -252 76q-90 0 -142.5 -44t-52.5 -126v-47h338v-307h-338v-39q0 -90 -59 -141h555v-369h-1114z" />
<glyph unicode="&#xa4;" horiz-adv-x="1146" d="M72 391l110 111q-55 94 -55 215q0 123 55 217l-110 113l172 174l127 -127q94 41 202 41q106 0 205 -41l125 129l172 -176l-112 -115q55 -94 55 -215t-53 -215l110 -111l-174 -174l-123 123q-94 -41 -204.5 -41t-204.5 41l-123 -123zM469 717q0 -41 26.5 -71t78 -30t77 30 t25.5 71t-26.5 71.5t-76.5 30.5q-51 0 -77.5 -30.5t-26.5 -71.5z" />
<glyph unicode="&#xa5;" horiz-adv-x="1558" d="M43 1393h504l231 -510l234 510h504l-379 -656h190v-225h-313v-80h313v-225h-313v-207h-469v207h-312v225h312v80h-312v225h189z" />
<glyph unicode="&#xa6;" horiz-adv-x="649" d="M111 -205v799h428v-799h-428zM111 860v799h428v-799h-428z" />
<glyph unicode="&#xa7;" horiz-adv-x="1085" d="M78 659q0 164 149 250q-141 98 -141 242q0 162 130 238.5t331 76.5q203 0 381 -84v-299q-154 86 -324 86q-68 0 -67 -34q0 -23 27.5 -38.5t102 -38t107.5 -34.5q242 -84 242 -283q0 -160 -135 -258q125 -90 125 -233q0 -170 -138.5 -247t-359.5 -77q-231 0 -391 86v326 q154 -106 346 -107q96 0 96 37q0 8 -5 16.5t-16.5 14.5t-23.5 12t-32.5 12.5t-36 11.5t-42 12t-45.5 13q-127 43 -203.5 110t-76.5 189zM428 715q-4 -49 82 -78q27 -12 100 -33q47 35 49 70q2 43 -65 74q-35 16 -115 43q-47 -31 -51 -76z" />
<glyph unicode="&#xa8;" horiz-adv-x="894" d="M14 1708q0 88 56.5 142.5t140.5 54.5q86 0 142.5 -54.5t56.5 -142.5t-56.5 -142.5t-142.5 -54.5q-84 0 -140.5 54.5t-56.5 142.5zM487 1708q0 88 56.5 142.5t140.5 54.5q86 0 142.5 -54.5t56.5 -142.5t-56.5 -142.5t-142.5 -54.5q-84 0 -140.5 54.5t-56.5 142.5z" />
<glyph unicode="&#xa9;" horiz-adv-x="1697" d="M61 717q0 182 63.5 327.5t173.5 235.5t250 138t300 48t301 -48t250.5 -138t173 -235.5t63.5 -327.5t-63.5 -327.5t-173 -236t-250.5 -138.5t-301 -48t-300 48t-250 138.5t-173.5 236t-63.5 327.5zM211 717q0 -291 185.5 -453t451.5 -162t452.5 162t186.5 453 t-186.5 452.5t-452.5 161.5t-451.5 -161.5t-185.5 -452.5zM434 700q0 219 133 329t334 110q168 0 283 -70v-252q-94 55 -209 55q-80 0 -133.5 -36.5t-53.5 -114.5q0 -84 54.5 -122t136.5 -38q117 0 205 57v-253q-76 -39 -140.5 -54.5t-166.5 -15.5q-174 0 -308.5 102.5 t-134.5 302.5z" />
<glyph unicode="&#xab;" horiz-adv-x="1376" d="M49 455v73l279 390h430l-299 -426l299 -426h-430zM621 455v73l280 390h430l-301 -426l301 -426h-430z" />
<glyph unicode="&#xac;" horiz-adv-x="1185" d="M74 637v346h1013v-580h-356v234h-657z" />
<glyph unicode="&#xad;" horiz-adv-x="983" d="M92 326v333h799v-333h-799z" />
<glyph unicode="&#xae;" horiz-adv-x="1689" d="M61 717q0 180 63.5 324.5t172.5 236.5t249 140t298 48q160 0 300 -48t248.5 -140t172 -236.5t63.5 -324.5t-63.5 -324.5t-172 -237t-248.5 -140.5t-300 -48q-158 0 -298 48t-249 140.5t-172.5 237t-63.5 324.5zM211 717q0 -291 182 -452t450.5 -161t451 160t182.5 453 t-182.5 452.5t-451 159.5t-450.5 -160.5t-182 -451.5zM508 324v798h401q145 0 242.5 -69.5t97.5 -218.5q0 -178 -141 -244l203 -266h-303l-164 227h-15h-47v-227h-274zM782 754h105q80 0 80 69q0 68 -80 68h-105v-137z" />
<glyph unicode="&#xaf;" horiz-adv-x="737" d="M-6 1530v297h743v-297h-743z" />
<glyph unicode="&#xb0;" horiz-adv-x="911" d="M41 1083q0 180 116.5 281.5t299.5 101.5q184 0 298.5 -101.5t114.5 -281.5q0 -190 -113.5 -291.5t-299.5 -101.5q-184 0 -300 101.5t-116 291.5zM350 1079q0 -49 28 -77.5t79 -28.5t77.5 28.5t26.5 77.5q0 47 -26.5 76t-77.5 29t-79 -29t-28 -76z" />
<glyph unicode="&#xb1;" horiz-adv-x="1191" d="M88 0v344h1016v-344h-1016zM88 752v344h336v311h344v-311h336v-344h-336v-314h-344v314h-336z" />
<glyph unicode="&#xb4;" horiz-adv-x="710" d="M45 1540l201 336h424l-250 -336h-375z" />
<glyph unicode="&#xb6;" horiz-adv-x="1701" d="M47 971q0 217 130 340t362 123h1034v-1885h-443v1471h-149v-1471h-442v961q-231 0 -361.5 122t-130.5 339z" />
<glyph unicode="&#xb7;" horiz-adv-x="593" d="M57 487.5q0 112.5 69 172t171 59.5t171 -59.5t69 -172t-69 -172t-171 -59.5t-171 59.5t-69 172z" />
<glyph unicode="&#xb8;" horiz-adv-x="471" d="M-41 -231q74 -31 160 -31q117 0 117 51q0 68 -181 49l47 162h260l-28 -88q188 -27 188 -184q0 -106 -93 -159.5t-228 -53.5q-143 0 -242 39v215z" />
<glyph unicode="&#xbb;" horiz-adv-x="1372" d="M45 66l301 426l-301 426h432l277 -390v-73l-277 -389h-432zM614 66l301 426l-301 426h433l276 -390v-73l-276 -389h-433z" />
<glyph unicode="&#xbc;" horiz-adv-x="1873" d="M74 557v231h159v336l-151 -51v242l219 78h207v-605h141v-231h-575zM389 -33l946 1499h123l-946 -1499h-123zM1049 113v225l393 498h278v-504h103v-219h-103v-113h-256v113h-415zM1309 332h155v196z" />
<glyph unicode="&#xbd;" horiz-adv-x="1810" d="M68 557v231h159v336l-151 -51v242l219 78h207v-605h141v-231h-575zM383 -33l946 1499h123l-946 -1499h-123zM1083 0l2 115q0 63 18.5 114.5t60.5 92t71 63.5t86 57q18 12 52 32t48.5 29t27.5 24.5t13 33.5q0 53 -80 53q-133 0 -272 -106v258q141 90 313 90 q143 0 236.5 -66.5t93.5 -205.5q0 -82 -41 -136.5t-115 -105.5q-16 -10 -44.5 -29.5t-44 -30t-33 -24.5t-27.5 -27h305v-231h-670z" />
<glyph unicode="&#xbe;" horiz-adv-x="1976" d="M68 608v244q133 -72 280 -68q109 0 109 60q0 47 -74 47h-147l2 211l118 -2q68 0 68 41q0 51 -98 51q-131 0 -244 -76v238q125 74 289 73q139 0 230 -59t91 -180q0 -137 -133 -180q74 -20 121 -71.5t47 -133.5q0 -131 -101.5 -191.5t-254.5 -60.5q-147 0 -303 57zM492 -33 l946 1499h123l-947 -1499h-122zM1151 113v225l393 498h279v-504h102v-219h-102v-113h-256v113h-416zM1411 332h156v196z" />
<glyph unicode="&#xbf;" horiz-adv-x="1026" d="M43 -111q0 94 52 184.5t114.5 149t115 123t52.5 111.5h401q0 -84 -41 -161t-91 -122t-91 -91t-41 -79q0 -86 131 -86q160 0 320 90v-401q-190 -90 -412 -90q-104 0 -189 17t-161 57t-118 116t-42 182zM336 784q0 115 67.5 173.5t171.5 58.5q102 0 171 -59.5t69 -172 t-68.5 -172t-171 -59.5t-171 59.5t-68.5 171.5z" />
<glyph unicode="&#xc0;" horiz-adv-x="1566" d="M-6 0l536 1434h508l535 -1434h-479l-62 190h-495l-64 -190h-479zM391 1876h422l203 -336h-375zM645 532h281l-101 306q-29 90 -41 184q-12 -82 -39 -184z" />
<glyph unicode="&#xc1;" horiz-adv-x="1566" d="M-6 0l536 1434h508l535 -1434h-479l-62 190h-495l-64 -190h-479zM553 1540l201 336h424l-250 -336h-375zM645 532h281l-101 306q-29 90 -41 184q-12 -82 -39 -184z" />
<glyph unicode="&#xc2;" horiz-adv-x="1566" d="M-6 0l536 1434h508l535 -1434h-479l-62 190h-495l-64 -190h-479zM332 1530l262 350h379l262 -350h-358l-93 117l-92 -117h-360zM645 532h281l-101 306q-29 90 -41 184q-12 -82 -39 -184z" />
<glyph unicode="&#xc3;" horiz-adv-x="1566" d="M-6 0l536 1434h508l535 -1434h-479l-62 190h-495l-64 -190h-479zM371 1516q-41 152 27.5 260t205.5 108q78 0 168 -43t109 -43q31 0 39 23.5t2 50.5h272q39 -150 -29.5 -259.5t-203.5 -109.5q-78 0 -168.5 43t-110.5 43q-29 0 -38 -24.5t-1 -48.5h-272zM645 532h281 l-101 306q-29 90 -41 184q-12 -82 -39 -184z" />
<glyph unicode="&#xc4;" horiz-adv-x="1566" d="M-6 0l536 1434h508l535 -1434h-479l-62 190h-495l-64 -190h-479zM352 1708q0 88 56.5 142.5t140.5 54.5q86 0 142.5 -54.5t56.5 -142.5t-56.5 -142.5t-142.5 -54.5q-84 0 -140.5 54.5t-56.5 142.5zM645 532h281l-101 306q-29 90 -41 184q-12 -82 -39 -184zM825 1708 q0 88 56.5 142.5t140.5 54.5q86 0 142.5 -54.5t56.5 -142.5t-56.5 -142.5t-142.5 -54.5q-84 0 -140.5 54.5t-56.5 142.5z" />
<glyph unicode="&#xc5;" horiz-adv-x="1566" d="M-6 0l536 1434h508l535 -1434h-479l-62 190h-495l-64 -190h-479zM500 1755q0 121 84 192.5t204 71.5q125 0 208 -70.5t83 -193.5q0 -129 -83 -199.5t-208 -70.5q-123 0 -205.5 71.5t-82.5 198.5zM645 532h281l-101 306q-29 90 -41 184q-12 -82 -39 -184zM721 1753 q0 -31 18.5 -51.5t51 -20.5t51 20.5t18.5 51.5q0 70 -69.5 70t-69.5 -70z" />
<glyph unicode="&#xc6;" horiz-adv-x="2105" d="M-31 0l879 1434h1177v-373h-561v-166h488v-348h-488v-170h574v-377h-1034v195h-441l-117 -195h-477zM758 532h248v422z" />
<glyph unicode="&#xc7;" horiz-adv-x="1333" d="M51 702q0 197 65.5 348.5t179.5 239.5t250 132t290 44q231 0 421 -86v-422q-141 98 -337 99q-164 0 -273.5 -87t-109.5 -268q0 -158 108.5 -238.5t263.5 -80.5q244 0 359 102v-432q-131 -59 -275 -78l-20 -63q188 -27 188 -184q0 -109 -93 -161t-230 -52q-141 0 -240 39 v215q74 -31 160 -31q117 0 116 51q0 68 -180 49l39 133q-297 33 -489.5 216.5t-192.5 514.5z" />
<glyph unicode="&#xc8;" horiz-adv-x="1273" d="M109 0v1434h1085v-373h-612v-166h538v-348h-538v-170h624v-377h-1097zM262 1876h422l203 -336h-375z" />
<glyph unicode="&#xc9;" horiz-adv-x="1273" d="M109 0v1434h1085v-373h-612v-166h538v-348h-538v-170h624v-377h-1097zM424 1540l201 336h424l-250 -336h-375z" />
<glyph unicode="&#xca;" horiz-adv-x="1273" d="M109 0v1434h1085v-373h-612v-166h538v-348h-538v-170h624v-377h-1097zM203 1530l262 350h379l262 -350h-358l-93 117l-92 -117h-360z" />
<glyph unicode="&#xcb;" horiz-adv-x="1273" d="M109 0v1434h1085v-373h-612v-166h538v-348h-538v-170h624v-377h-1097zM223 1708q0 88 56.5 142.5t140.5 54.5q86 0 142 -54.5t56 -142.5t-56 -142.5t-142 -54.5q-84 0 -140.5 54.5t-56.5 142.5zM696 1708q0 88 56.5 142.5t140.5 54.5q86 0 142.5 -54.5t56.5 -142.5 t-56.5 -142.5t-142.5 -54.5q-84 0 -140.5 54.5t-56.5 142.5z" />
<glyph unicode="&#xcc;" horiz-adv-x="690" d="M-49 1876h422l202 -336h-374zM109 0v1434h473v-1434h-473z" />
<glyph unicode="&#xcd;" horiz-adv-x="690" d="M109 0v1434h473v-1434h-473zM113 1540l200 336h424l-250 -336h-374z" />
<glyph unicode="&#xce;" horiz-adv-x="690" d="M-109 1530l263 350h378l263 -350h-359l-92 117l-92 -117h-361zM109 0v1434h473v-1434h-473z" />
<glyph unicode="&#xcf;" horiz-adv-x="690" d="M-88 1708q0 88 56.5 142.5t140.5 54.5q86 0 142 -54.5t56 -142.5t-56 -142.5t-142 -54.5q-84 0 -140.5 54.5t-56.5 142.5zM109 0v1434h473v-1434h-473zM385 1708q0 88 56.5 142.5t140.5 54.5q86 0 142 -54.5t56 -142.5t-56 -142.5t-142 -54.5q-84 0 -140.5 54.5 t-56.5 142.5z" />
<glyph unicode="&#xd0;" horiz-adv-x="1554" d="M16 575v279h121v580h619q373 0 559 -193.5t186 -523.5t-186.5 -523.5t-558.5 -193.5h-619v575h-121zM610 397h133q270 0 270.5 319.5t-270.5 319.5h-133v-182h207v-279h-207v-178z" />
<glyph unicode="&#xd1;" horiz-adv-x="1562" d="M109 0v1434h399l485 -674q-12 102 -12 246v428h473v-1434h-399l-486 672q12 -102 13 -242v-430h-473zM356 1516q-41 152 28 260t206 108q78 0 168 -43t108 -43q31 0 39 23.5t2 50.5h273q39 -150 -30 -259.5t-204 -109.5q-78 0 -168 43t-110 43q-29 0 -38 -24.5t-1 -48.5 h-273z" />
<glyph unicode="&#xd2;" horiz-adv-x="1650" d="M49 716.5q0 325.5 203 537.5t573.5 212t573.5 -212t203 -537.5t-203 -537.5t-573.5 -212t-573.5 212t-203 537.5zM430 1876h422l203 -336h-375zM535 716.5q0 -149.5 76.5 -235.5t214 -86t214 86t76.5 235.5t-76.5 235.5t-214 86t-214 -86t-76.5 -235.5z" />
<glyph unicode="&#xd3;" horiz-adv-x="1650" d="M49 716.5q0 325.5 203 537.5t573.5 212t573.5 -212t203 -537.5t-203 -537.5t-573.5 -212t-573.5 212t-203 537.5zM535 716.5q0 -149.5 76.5 -235.5t214 -86t214 86t76.5 235.5t-76.5 235.5t-214 86t-214 -86t-76.5 -235.5zM592 1540l201 336h424l-250 -336h-375z" />
<glyph unicode="&#xd4;" horiz-adv-x="1650" d="M49 716.5q0 325.5 203 537.5t573.5 212t573.5 -212t203 -537.5t-203 -537.5t-573.5 -212t-573.5 212t-203 537.5zM371 1530l262 350h379l262 -350h-359l-92 117l-92 -117h-360zM535 716.5q0 -149.5 76.5 -235.5t214 -86t214 86t76.5 235.5t-76.5 235.5t-214 86t-214 -86 t-76.5 -235.5z" />
<glyph unicode="&#xd5;" horiz-adv-x="1650" d="M49 716.5q0 325.5 203 537.5t573.5 212t573.5 -212t203 -537.5t-203 -537.5t-573.5 -212t-573.5 212t-203 537.5zM410 1516q-41 152 27.5 260t205.5 108q78 0 168 -43t109 -43q31 0 39 23.5t2 50.5h272q39 -150 -29.5 -259.5t-204.5 -109.5q-78 0 -168 43t-110 43 q-29 0 -38 -24.5t-1 -48.5h-272zM535 716.5q0 -149.5 76.5 -235.5t214 -86t214 86t76.5 235.5t-76.5 235.5t-214 86t-214 -86t-76.5 -235.5z" />
<glyph unicode="&#xd6;" horiz-adv-x="1650" d="M49 716.5q0 325.5 203 537.5t573.5 212t573.5 -212t203 -537.5t-203 -537.5t-573.5 -212t-573.5 212t-203 537.5zM391 1708q0 88 56.5 142.5t140.5 54.5q86 0 142 -54.5t56 -142.5t-56 -142.5t-142 -54.5q-84 0 -140.5 54.5t-56.5 142.5zM535 716.5q0 -149.5 76.5 -235.5 t214 -86t214 86t76.5 235.5t-76.5 235.5t-214 86t-214 -86t-76.5 -235.5zM864 1708q0 88 56.5 142.5t140.5 54.5q86 0 142.5 -54.5t56.5 -142.5t-56.5 -142.5t-142.5 -54.5q-84 0 -140.5 54.5t-56.5 142.5z" />
<glyph unicode="&#xd7;" horiz-adv-x="1077" d="M61 465l250 250l-250 252l226 225l252 -250l249 250l228 -225l-252 -252l252 -250l-228 -225l-249 249l-252 -249z" />
<glyph unicode="&#xd8;" horiz-adv-x="1650" d="M49 717q0 326 203 537.5t573 211.5q217 0 373 -73l98 139h226l-168 -236q248 -205 248 -579q0 -326 -203 -538t-574 -212q-207 0 -370 74l-99 -139h-225l168 233q-250 209 -250 582zM535 717q0 -109 45 -189l352 494q-54 16 -107 16q-137 0 -213.5 -86t-76.5 -235z M721 414q45 -18 102 -19q137 0 214 86t77 236q0 113 -45 184z" />
<glyph unicode="&#xd9;" horiz-adv-x="1515" d="M92 557v877h473v-854q0 -188 193 -189q195 0 194 189v854h471v-877q0 -160 -55 -277.5t-151.5 -184t-210 -97.5t-248.5 -31t-249 31t-210 97.5t-151.5 184t-55.5 277.5zM365 1876h421l203 -336h-375z" />
<glyph unicode="&#xda;" horiz-adv-x="1515" d="M92 557v877h473v-854q0 -188 193 -189q195 0 194 189v854h471v-877q0 -160 -55 -277.5t-151.5 -184t-210 -97.5t-248.5 -31t-249 31t-210 97.5t-151.5 184t-55.5 277.5zM526 1540l201 336h424l-250 -336h-375z" />
<glyph unicode="&#xdb;" horiz-adv-x="1515" d="M92 557v877h473v-854q0 -188 193 -189q195 0 194 189v854h471v-877q0 -160 -55 -277.5t-151.5 -184t-210 -97.5t-248.5 -31t-249 31t-210 97.5t-151.5 184t-55.5 277.5zM305 1530l262 350h379l262 -350h-358l-92 117l-92 -117h-361z" />
<glyph unicode="&#xdc;" horiz-adv-x="1515" d="M92 557v877h473v-854q0 -188 193 -189q195 0 194 189v854h471v-877q0 -160 -55 -277.5t-151.5 -184t-210 -97.5t-248.5 -31t-249 31t-210 97.5t-151.5 184t-55.5 277.5zM326 1708q0 88 56 142.5t140 54.5q86 0 142.5 -54.5t56.5 -142.5t-56.5 -142.5t-142.5 -54.5 q-84 0 -140 54.5t-56 142.5zM799 1708q0 88 56 142.5t140 54.5q86 0 142.5 -54.5t56.5 -142.5t-56.5 -142.5t-142.5 -54.5q-84 0 -140 54.5t-56 142.5z" />
<glyph unicode="&#xdd;" horiz-adv-x="1542" d="M-8 1434h534l246 -543l246 543h534l-546 -945v-489h-469v489zM530 1540l201 336h424l-250 -336h-375z" />
<glyph unicode="&#xde;" horiz-adv-x="1413" d="M109 0v1434h473v-187h153q643 0 643 -530q0 -526 -643 -531h-153v-186h-473zM582 578h149q178 0 178 139t-178 139h-149v-278z" />
<glyph unicode="&#xdf;" horiz-adv-x="1265" d="M84 0v973q0 227 135 359t387 134q125 0 223.5 -31.5t153.5 -85t83 -111.5t28 -116q0 -68 -36 -130t-72 -113.5t-36 -92.5t45 -96t100.5 -106.5t100.5 -133t45 -167.5q0 -158 -105.5 -237t-267.5 -79q-123 0 -260 49v334q55 -31 117 -31q94 0 94 70q0 37 -56 95.5 t-112.5 128t-56.5 132.5q0 66 52 146t52 141q0 41 -23.5 64.5t-64.5 23.5q-45 0 -69.5 -25.5t-24.5 -70.5v-1024h-432z" />
<glyph unicode="&#xe0;" horiz-adv-x="1177" d="M37 264q0 90 38 154.5t103.5 99.5t137 50.5t153.5 15.5q109 0 195 -19v23q0 109 -195 108q-164 0 -354 -69v323q219 66 403 66q274 0 414.5 -103.5t140.5 -373.5v-228q0 -53 57 -53q14 0 39 4v-252q-88 -37 -217 -37q-172 0 -245 105q-135 -111 -328 -111 q-145 0 -243.5 78t-98.5 219zM162 1446h422l202 -336h-374zM455 299q0 -35 27.5 -56.5t68.5 -21.5q61 0 113 33v121q-33 12 -86 12q-51 0 -87 -21.5t-36 -66.5z" />
<glyph unicode="&#xe1;" horiz-adv-x="1177" d="M37 264q0 90 38 154.5t103.5 99.5t137 50.5t153.5 15.5q109 0 195 -19v23q0 109 -195 108q-164 0 -354 -69v323q219 66 403 66q274 0 414.5 -103.5t140.5 -373.5v-228q0 -53 57 -53q14 0 39 4v-252q-88 -37 -217 -37q-172 0 -245 105q-135 -111 -328 -111 q-145 0 -243.5 78t-98.5 219zM324 1110l200 336h424l-250 -336h-374zM455 299q0 -35 27.5 -56.5t68.5 -21.5q61 0 113 33v121q-33 12 -86 12q-51 0 -87 -21.5t-36 -66.5z" />
<glyph unicode="&#xe2;" horiz-adv-x="1177" d="M37 264q0 90 38 154.5t103.5 99.5t137 50.5t153.5 15.5q109 0 195 -19v23q0 109 -195 108q-164 0 -354 -69v323q219 66 403 66q274 0 414.5 -103.5t140.5 -373.5v-228q0 -53 57 -53q14 0 39 4v-252q-88 -37 -217 -37q-172 0 -245 105q-135 -111 -328 -111 q-145 0 -243.5 78t-98.5 219zM102 1100l263 350h378l263 -350h-359l-92 117l-92 -117h-361zM455 299q0 -35 27.5 -56.5t68.5 -21.5q61 0 113 33v121q-33 12 -86 12q-51 0 -87 -21.5t-36 -66.5z" />
<glyph unicode="&#xe3;" horiz-adv-x="1177" d="M37 264q0 90 38 154.5t103.5 99.5t137 50.5t153.5 15.5q109 0 195 -19v23q0 109 -195 108q-164 0 -354 -69v323q219 66 403 66q274 0 414.5 -103.5t140.5 -373.5v-228q0 -53 57 -53q14 0 39 4v-252q-88 -37 -217 -37q-172 0 -245 105q-135 -111 -328 -111 q-145 0 -243.5 78t-98.5 219zM141 1085q-41 152 28 260.5t206 108.5q78 0 168 -43t108 -43q31 0 39 23.5t2 50.5h273q39 -150 -30 -259.5t-204 -109.5q-78 0 -168 43t-110 43q-29 0 -38 -24.5t-1 -49.5h-273zM455 299q0 -35 27.5 -56.5t68.5 -21.5q61 0 113 33v121 q-33 12 -86 12q-51 0 -87 -21.5t-36 -66.5z" />
<glyph unicode="&#xe4;" horiz-adv-x="1177" d="M37 264q0 90 38 154.5t103.5 99.5t137 50.5t153.5 15.5q109 0 195 -19v23q0 109 -195 108q-164 0 -354 -69v323q219 66 403 66q274 0 414.5 -103.5t140.5 -373.5v-228q0 -53 57 -53q14 0 39 4v-252q-88 -37 -217 -37q-172 0 -245 105q-135 -111 -328 -111 q-145 0 -243.5 78t-98.5 219zM123 1278q0 88 56.5 142.5t139.5 54.5q86 0 142.5 -54.5t56.5 -142.5t-56 -142.5t-143 -54.5q-84 0 -140 54.5t-56 142.5zM455 299q0 -35 27.5 -56.5t68.5 -21.5q61 0 113 33v121q-33 12 -86 12q-51 0 -87 -21.5t-36 -66.5zM596 1278 q0 88 56.5 142.5t140.5 54.5q86 0 142 -54.5t56 -142.5t-56 -142.5t-142 -54.5q-84 0 -140.5 54.5t-56.5 142.5z" />
<glyph unicode="&#xe5;" horiz-adv-x="1177" d="M37 264q0 90 38 154.5t103.5 99.5t137 50.5t153.5 15.5q109 0 195 -19v23q0 109 -195 108q-164 0 -354 -69v323q219 66 403 66q274 0 414.5 -103.5t140.5 -373.5v-228q0 -53 57 -53q14 0 39 4v-252q-88 -37 -217 -37q-172 0 -245 105q-135 -111 -328 -111 q-145 0 -243.5 78t-98.5 219zM270 1325q0 121 84 192.5t205 71.5q125 0 208 -70.5t83 -193.5q0 -129 -83 -199.5t-208 -70.5q-123 0 -206 71.5t-83 198.5zM455 299q0 -35 27.5 -56.5t68.5 -21.5q61 0 113 33v121q-33 12 -86 12q-51 0 -87 -21.5t-36 -66.5zM492 1323 q0 -31 18 -51.5t51 -20.5t51.5 20.5t18.5 51.5q0 70 -69.5 70t-69.5 -70z" />
<glyph unicode="&#xe6;" horiz-adv-x="1710" d="M35 264q0 92 38 156.5t103.5 99.5t140 50.5t162.5 15.5q109 0 205 -21v23q0 106 -205 106q-168 0 -360 -69v325q215 66 405 66q248 0 346 -111q137 111 326 111q143 0 248.5 -58.5t154 -148.5t66.5 -200.5t-10 -215.5h-606q25 -59 102.5 -91t177.5 -32q166 0 281 37v-291 q-154 -49 -355 -49q-268 0 -413 137q-188 -137 -447 -137q-152 0 -256 78t-104 219zM465 299q0 -37 26.5 -56.5t67.5 -19.5q84 0 166 56q-16 53 -25 98q-57 12 -102 12q-133 0 -133 -90zM1042 594h261q8 49 -21.5 94t-97.5 45q-63 0 -102.5 -40t-39.5 -99z" />
<glyph unicode="&#xe7;" horiz-adv-x="1001" d="M43 465q0 143 49 252.5t133 174t185.5 96.5t216.5 32q152 0 303 -59v-355q-111 55 -225 56q-94 0 -156 -41t-62 -129q0 -86 59.5 -126t149.5 -40q140 0 244 49v-352q-121 -37 -192 -46l-21 -65q190 -27 191 -184q0 -106 -94.5 -159.5t-229.5 -53.5q-141 0 -242 39v215 q74 -31 162 -31q115 0 115 51q0 68 -180 49l40 135q-197 29 -321.5 152t-124.5 340z" />
<glyph unicode="&#xe8;" horiz-adv-x="1120" d="M43 498q0 137 51 242.5t132 163t169 85t176 27.5q127 0 226.5 -38t156 -99.5t91 -142.5t33.5 -169t-15 -174h-606q25 -59 102.5 -91t177.5 -32q160 0 283 39v-291q-150 -51 -358 -51q-166 0 -301.5 51.5t-226.5 175.5t-91 304zM172 1425h422l203 -335h-375zM453 592h260 q8 51 -20.5 95t-98.5 44q-63 0 -102 -39t-39 -100z" />
<glyph unicode="&#xe9;" horiz-adv-x="1120" d="M43 498q0 137 51 242.5t132 163t169 85t176 27.5q127 0 226.5 -38t156 -99.5t91 -142.5t33.5 -169t-15 -174h-606q25 -59 102.5 -91t177.5 -32q160 0 283 39v-291q-150 -51 -358 -51q-166 0 -301.5 51.5t-226.5 175.5t-91 304zM334 1090l201 335h423l-249 -335h-375z M453 592h260q8 51 -20.5 95t-98.5 44q-63 0 -102 -39t-39 -100z" />
<glyph unicode="&#xea;" horiz-adv-x="1120" d="M43 498q0 137 51 242.5t132 163t169 85t176 27.5q127 0 226.5 -38t156 -99.5t91 -142.5t33.5 -169t-15 -174h-606q25 -59 102.5 -91t177.5 -32q160 0 283 39v-291q-150 -51 -358 -51q-166 0 -301.5 51.5t-226.5 175.5t-91 304zM113 1079l262 351h379l262 -351h-359 l-92 117l-92 -117h-360zM453 592h260q8 51 -20.5 95t-98.5 44q-63 0 -102 -39t-39 -100z" />
<glyph unicode="&#xeb;" horiz-adv-x="1120" d="M43 498q0 137 51 242.5t132 163t169 85t176 27.5q127 0 226.5 -38t156 -99.5t91 -142.5t33.5 -169t-15 -174h-606q25 -59 102.5 -91t177.5 -32q160 0 283 39v-291q-150 -51 -358 -51q-166 0 -301.5 51.5t-226.5 175.5t-91 304zM133 1257.5q0 88.5 56.5 142.5t140.5 54 q86 0 142 -54t56 -142.5t-56 -142.5t-142 -54q-84 0 -140.5 54t-56.5 142.5zM453 592h260q8 51 -20.5 95t-98.5 44q-63 0 -102 -39t-39 -100zM606 1257.5q0 88.5 56.5 142.5t140.5 54q86 0 142 -54t56 -142.5t-56 -142.5t-142 -54q-84 0 -140.5 54t-56.5 142.5z" />
<glyph unicode="&#xec;" horiz-adv-x="600" d="M-31 1425h422l119 -335h-375zM84 0v983h432v-983h-432z" />
<glyph unicode="&#xed;" horiz-adv-x="600" d="M66 1090l200 335h424l-250 -335h-374zM84 0v983h432v-983h-432z" />
<glyph unicode="&#xee;" horiz-adv-x="600" d="M-111 1079l222 351h378l220 -351h-338l-72 127l-72 -127h-338zM84 0v983h432v-983h-432z" />
<glyph unicode="&#xef;" horiz-adv-x="600" d="M-111 1257.5q0 83.5 53.5 135t133.5 51.5t133 -51.5t53 -135t-53 -135t-133 -51.5t-133.5 51.5t-53.5 135zM84 0v983h432v-983h-432zM319 1257.5q0 83.5 53.5 135t133.5 51.5q82 0 135 -51.5t53 -135t-53 -135t-135 -51.5q-80 0 -133.5 51.5t-53.5 135z" />
<glyph unicode="&#xf0;" horiz-adv-x="1179" d="M43 440q0 207 118 320.5t290 113.5q188 0 278 -110q0 39 -12 78q-33 127 -160 213l-137 -137l-137 141l79 78q-80 20 -184 20v332q258 0 449 -88l135 135l137 -139l-96 -97q323 -245 323 -706q0 -170 -43 -295t-119.5 -195.5t-170 -103.5t-207.5 -33q-240 0 -391.5 120 t-151.5 353zM457 434q0 -59 31.5 -99t97.5 -40q63 0 95 40t32 99q0 57 -32 97t-95 40q-66 0 -97.5 -40t-31.5 -97z" />
<glyph unicode="&#xf1;" d="M84 0v983h379v-98q131 131 301 131q190 0 285.5 -111.5t95.5 -269.5v-635h-432v561q0 94 -95 94q-61 0 -102 -49v-606h-432zM172 1065q-41 152 27.5 260.5t206.5 108.5q78 0 168 -43t108 -43q31 0 39 23.5t2 49.5h272q39 -150 -29.5 -259t-203.5 -109q-78 0 -168 43 t-111 43q-29 0 -38 -24.5t-1 -49.5h-272z" />
<glyph unicode="&#xf2;" d="M43 491.5q0 253.5 161 389t404 135.5q246 0 407 -135.5t161 -389t-161 -389t-407 -135.5q-244 0 -404.5 135.5t-160.5 389zM215 1417h422l203 -336h-375zM465 491.5q0 -167.5 143 -167.5q146 0 146 167.5t-146 167.5q-143 0 -143 -167.5z" />
<glyph unicode="&#xf3;" d="M43 491.5q0 253.5 161 389t404 135.5q246 0 407 -135.5t161 -389t-161 -389t-407 -135.5q-244 0 -404.5 135.5t-160.5 389zM377 1081l201 336h423l-249 -336h-375zM465 491.5q0 -167.5 143 -167.5q146 0 146 167.5t-146 167.5q-143 0 -143 -167.5z" />
<glyph unicode="&#xf4;" d="M43 491.5q0 253.5 161 389t404 135.5q246 0 407 -135.5t161 -389t-161 -389t-407 -135.5q-244 0 -404.5 135.5t-160.5 389zM156 1071l262 350h379l262 -350h-359l-92 117l-92 -117h-360zM465 491.5q0 -167.5 143 -167.5q146 0 146 167.5t-146 167.5q-143 0 -143 -167.5z " />
<glyph unicode="&#xf5;" d="M43 491.5q0 253.5 161 389t404 135.5q246 0 407 -135.5t161 -389t-161 -389t-407 -135.5q-244 0 -404.5 135.5t-160.5 389zM195 1057q-41 152 27.5 260t205.5 108q78 0 168 -43t109 -43q31 0 39 23.5t1 50.5h273q39 -150 -29.5 -259.5t-204.5 -109.5q-78 0 -168 43 t-110 43q-29 0 -38 -24.5t-1 -48.5h-272zM465 491.5q0 -167.5 143 -167.5q146 0 146 167.5t-146 167.5q-143 0 -143 -167.5z" />
<glyph unicode="&#xf6;" d="M43 491.5q0 253.5 161 389t404 135.5q246 0 407 -135.5t161 -389t-161 -389t-407 -135.5q-244 0 -404.5 135.5t-160.5 389zM176 1249q0 88 56.5 142.5t140.5 54.5q86 0 142 -54.5t56 -142.5t-56 -142t-142 -54q-84 0 -140.5 54t-56.5 142zM465 491.5q0 -167.5 143 -167.5 q146 0 146 167.5t-146 167.5q-143 0 -143 -167.5zM649 1249q0 88 56.5 142.5t140.5 54.5q86 0 142 -54.5t56 -142.5t-56 -142t-142 -54q-84 0 -140.5 54t-56.5 142z" />
<glyph unicode="&#xf7;" horiz-adv-x="1140" d="M55 551v334h1030v-334h-1030zM332 237.5q0 112.5 68.5 171t170.5 58.5q104 0 172 -58t68 -171q0 -115 -67.5 -173.5t-172.5 -58.5q-102 0 -170.5 59.5t-68.5 172zM332 1200q0 113 68.5 171.5t170.5 58.5q104 0 172 -58.5t68 -171.5q0 -115 -67.5 -173t-172.5 -58 q-102 0 -170.5 59t-68.5 172z" />
<glyph unicode="&#xf8;" d="M43 492q0 254 161 389t404 135q143 0 258 -45l90 141h99l-115 -178q236 -139 236 -442q0 -254 -161 -389.5t-407 -135.5q-143 0 -254 45l-90 -143h-100l115 180q-236 137 -236 443zM465 492q0 -66 27 -111l170 270q-19 8 -54 8q-143 0 -143 -167zM559 330q43 -6 51 -6 q145 0 146 168q0 59 -27 108z" />
<glyph unicode="&#xf9;" d="M74 348v635h432v-561q0 -94 94 -94q61 0 102 49v606h433v-983h-379v98q-131 -131 -303 -131q-188 0 -283.5 111.5t-95.5 269.5zM211 1425h422l203 -335h-375z" />
<glyph unicode="&#xfa;" d="M74 348v635h432v-561q0 -94 94 -94q61 0 102 49v606h433v-983h-379v98q-131 -131 -303 -131q-188 0 -283.5 111.5t-95.5 269.5zM373 1090l200 335h424l-249 -335h-375z" />
<glyph unicode="&#xfb;" d="M74 348v635h432v-561q0 -94 94 -94q61 0 102 49v606h433v-983h-379v98q-131 -131 -303 -131q-188 0 -283.5 111.5t-95.5 269.5zM152 1079l262 351h379l262 -351h-359l-92 117l-92 -117h-360z" />
<glyph unicode="&#xfc;" d="M74 348v635h432v-561q0 -94 94 -94q61 0 102 49v606h433v-983h-379v98q-131 -131 -303 -131q-188 0 -283.5 111.5t-95.5 269.5zM172 1257.5q0 88.5 56.5 142.5t140.5 54q86 0 142 -54t56 -142.5t-56 -142.5t-142 -54q-84 0 -140.5 54t-56.5 142.5zM645 1257.5 q0 88.5 56.5 142.5t140.5 54q86 0 142 -54t56 -142.5t-56 -142.5t-142 -54q-84 0 -140.5 54t-56.5 142.5z" />
<glyph unicode="&#xfd;" horiz-adv-x="1236" d="M-8 983h446l203 -539l150 539h438l-375 -1042q-152 -422 -524 -422q-96 0 -215 35v348q78 -20 145 -21q125 0 182 113zM371 1090l200 335h424l-250 -335h-374z" />
<glyph unicode="&#xfe;" horiz-adv-x="1280" d="M84 -451v1885h432v-521q106 102 272 103q221 0 334 -152.5t113 -371.5q0 -221 -114.5 -373t-332.5 -152q-166 0 -272 99v-517h-432zM514 387q47 -68 129 -70q72 -2 110 50.5t38 124.5q0 74 -37 126t-111 52q-45 0 -80 -21.5t-49 -52.5v-209z" />
<glyph unicode="&#xff;" horiz-adv-x="1236" d="M-8 983h446l203 -539l150 539h438l-375 -1042q-152 -422 -524 -422q-96 0 -215 35v348q78 -20 145 -21q125 0 182 113zM170 1257.5q0 88.5 56.5 142.5t140.5 54q86 0 142 -54t56 -142.5t-56 -142.5t-142 -54q-84 0 -140.5 54t-56.5 142.5zM643 1257.5q0 88.5 56.5 142.5 t140.5 54q86 0 142 -54t56 -142.5t-56 -142.5t-142 -54q-84 0 -140.5 54t-56.5 142.5z" />
<glyph unicode="&#x152;" horiz-adv-x="2101" d="M49 716.5q0 321.5 200 535.5t542 214q135 0 247 -32h983v-373h-538v-166h465v-348h-465v-170h551v-377h-996q-111 -33 -247 -33q-342 0 -542 214t-200 535.5zM532 717q0 -162 93.5 -244t218.5 -82q94 0 182 35v582q-88 35 -182 34q-125 0 -218.5 -81.5t-93.5 -243.5z" />
<glyph unicode="&#x153;" horiz-adv-x="1843" d="M45 491.5q0 253.5 151.5 389t385.5 135.5q244 0 372 -158q137 158 371 158q119 0 212 -38t145.5 -101.5t85 -144.5t31.5 -167t-15 -172h-604q25 -59 101.5 -91t176.5 -32q172 0 283 39v-291q-154 -51 -344 -51q-293 0 -436 164q-119 -164 -379 -164q-233 0 -385 135.5 t-152 389zM467 491.5q0 -167.5 143 -167.5q145 0 145.5 167.5t-145.5 167.5q-143 0 -143 -167.5zM1174 590h260q8 51 -20.5 96t-98.5 45q-63 0 -102 -40t-39 -101z" />
<glyph unicode="&#x178;" horiz-adv-x="1542" d="M-8 1434h534l246 -543l246 543h534l-546 -945v-489h-469v489zM330 1708q0 88 56 142.5t140 54.5q86 0 142.5 -54.5t56.5 -142.5t-56.5 -142.5t-142.5 -54.5q-84 0 -140 54.5t-56 142.5zM803 1708q0 88 56 142.5t140 54.5q86 0 142.5 -54.5t56.5 -142.5t-56.5 -142.5 t-142.5 -54.5q-84 0 -140 54.5t-56 142.5z" />
<glyph unicode="&#x2c6;" horiz-adv-x="856" d="M-25 1530l263 350h378l263 -350h-359l-92 117l-92 -117h-361z" />
<glyph unicode="&#x2dc;" horiz-adv-x="921" d="M49 1516q-41 152 27.5 260t206.5 108q78 0 168 -43t108 -43q31 0 39 23.5t2 50.5h272q39 -150 -29.5 -259.5t-203.5 -109.5q-78 0 -168 43t-111 43q-29 0 -38 -24.5t0 -48.5h-273z" />
<glyph unicode="&#x2000;" horiz-adv-x="1009" />
<glyph unicode="&#x2001;" horiz-adv-x="2019" />
<glyph unicode="&#x2002;" horiz-adv-x="1009" />
<glyph unicode="&#x2003;" horiz-adv-x="2019" />
<glyph unicode="&#x2004;" horiz-adv-x="673" />
<glyph unicode="&#x2005;" horiz-adv-x="504" />
<glyph unicode="&#x2006;" horiz-adv-x="336" />
<glyph unicode="&#x2007;" horiz-adv-x="336" />
<glyph unicode="&#x2008;" horiz-adv-x="252" />
<glyph unicode="&#x2009;" horiz-adv-x="403" />
<glyph unicode="&#x200a;" horiz-adv-x="112" />
<glyph unicode="&#x2010;" horiz-adv-x="983" d="M92 326v333h799v-333h-799z" />
<glyph unicode="&#x2011;" horiz-adv-x="983" d="M92 326v333h799v-333h-799z" />
<glyph unicode="&#x2012;" horiz-adv-x="983" d="M92 326v333h799v-333h-799z" />
<glyph unicode="&#x2013;" horiz-adv-x="1198" d="M92 326v333h1014v-333h-1014z" />
<glyph unicode="&#x2014;" horiz-adv-x="1619" d="M92 326v333h1436v-333h-1436z" />
<glyph unicode="&#x2018;" horiz-adv-x="608" d="M23 805l237 629h322l-144 -629h-415z" />
<glyph unicode="&#x2019;" horiz-adv-x="598" d="M41 805l145 629h414l-235 -629h-324z" />
<glyph unicode="&#x201a;" horiz-adv-x="585" d="M-25 -293l146 629h414l-236 -629h-324z" />
<glyph unicode="&#x201c;" horiz-adv-x="1093" d="M23 805l237 629h322l-144 -629h-415zM508 805l237 629h322l-143 -629h-416z" />
<glyph unicode="&#x201d;" horiz-adv-x="1083" d="M41 805l145 629h414l-235 -629h-324zM526 805l146 629h413l-235 -629h-324z" />
<glyph unicode="&#x201e;" horiz-adv-x="1071" d="M-25 -293l146 629h414l-236 -629h-324zM461 -293l145 629h414l-236 -629h-323z" />
<glyph unicode="&#x2022;" horiz-adv-x="894" d="M98 717q0 166 100.5 250t247.5 84q152 0 250.5 -84t98.5 -250q0 -168 -98.5 -253t-250.5 -85q-147 0 -247.5 86t-100.5 252z" />
<glyph unicode="&#x2026;" horiz-adv-x="1814" d="M51 198.5q0 112.5 68.5 172t171 59.5t171 -59.5t68.5 -172t-68.5 -172t-171 -59.5t-171 59.5t-68.5 172zM668 198.5q0 112.5 68.5 172t171 59.5t171 -59.5t68.5 -172t-68.5 -172t-171 -59.5t-171 59.5t-68.5 172zM1284 198.5q0 112.5 68.5 172t171 59.5t171 -59.5 t68.5 -172t-68.5 -172t-171 -59.5t-171 59.5t-68.5 172z" />
<glyph unicode="&#x202f;" horiz-adv-x="403" />
<glyph unicode="&#x2039;" horiz-adv-x="802" d="M49 455v73l279 390h430l-299 -426l299 -426h-430z" />
<glyph unicode="&#x203a;" horiz-adv-x="802" d="M45 66l301 426l-301 426h432l277 -390v-73l-277 -389h-432z" />
<glyph unicode="&#x205f;" horiz-adv-x="504" />
<glyph unicode="&#x20ac;" horiz-adv-x="1478" d="M55 479v183h135v34v35h-135v182h162q63 254 268 383t471 129q231 0 422 -86v-409q-141 98 -340 98q-190 0 -290 -115h387v-182h-455q-2 -10 -2 -34.5t2 -34.5h455v-183h-385q96 -109 280 -108q233 0 348 102v-420q-190 -86 -409 -86q-178 0 -327.5 51.5t-265.5 170 t-159 290.5h-162z" />
<glyph unicode="&#x2122;" horiz-adv-x="1431" d="M59 1225v209h506v-209h-135v-330h-235v330h-136zM612 895v539h205l154 -222l151 222h207v-539h-225v229l-76 -112h-117l-75 112v-229h-224z" />
<glyph unicode="&#x25fc;" horiz-adv-x="983" d="M0 0v983h983v-983h-983z" />
<glyph unicode="&#xfb01;" horiz-adv-x="1378" d="M49 639v344h139v55q0 225 147.5 338t389.5 113q182 0 395 -68v-336q-166 55 -303 56q-197 0 -196 -133v-25h673v-983h-430v639h-243v-639h-433v639h-139z" />
<glyph unicode="&#xfb02;" horiz-adv-x="1425" d="M49 639v344h139v64q0 213 131 327.5t336 114.5q158 0 314 -55l372 41v-1475h-432v1112q-66 27 -139 27q-150 -4 -149 -127v-29h182v-344h-182v-639h-433v639h-139z" />
<glyph unicode="&#xfb03;" horiz-adv-x="2111" d="M49 639v344h139v47q0 207 133.5 313.5t333.5 106.5q190 0 367 -82q141 139 418 139q182 0 395 -67v-336q-166 55 -303 55q-197 0 -197 -133v-43h693v-983h-431v639h-262v-639h-432v639h-282v-639h-433v639h-139zM621 983h284v57v52q-66 33 -149 32q-61 0 -98 -29.5 t-37 -82.5v-29z" />
<glyph unicode="&#xfb04;" horiz-adv-x="2140" d="M49 639v344h139v47q0 207 133.5 313.5t333.5 106.5q188 0 365 -82q127 129 350 129q156 0 316 -55l370 41v-1483h-432v1122q-76 27 -139 25q-150 0 -150 -125v-39h183v-344h-183v-639h-432v639h-282v-639h-433v639h-139zM621 983h284v59v50q-66 33 -149 32 q-61 0 -98 -29.5t-37 -82.5v-29z" />
</font>
</defs>
</svg>
